<?xml version="1.0" standalone="no"?>
<!DOCTYPE svg PUBLIC "-//W3C//DTD SVG 20010904//EN"
 "http://www.w3.org/TR/2001/REC-SVG-20010904/DTD/svg10.dtd">
<svg version="1.0" xmlns="http://www.w3.org/2000/svg"
 width="260.000000pt" height="260.000000pt" viewBox="0 0 260.000000 260.000000"
 preserveAspectRatio="xMidYMid meet">
<metadata>
Created by potrace 1.11, written by Peter Selinger 2001-2013
</metadata>
<g transform="translate(0.000000,260.000000) scale(0.100000,-0.100000)"
fill="#000000" stroke="none">
<path d="M170 2432 l0 -59 79 -17 c43 -9 107 -31 141 -48 109 -54 101 36 98
-1062 -3 -941 -3 -945 -24 -973 -11 -15 -35 -38 -53 -50 -30 -20 -47 -24 -183
-39 l-58 -6 0 -59 0 -59 505 0 505 0 0 58 0 57 -108 23 c-127 28 -168 50 -193
106 -17 38 -19 74 -19 494 0 520 -6 495 92 394 225 -231 604 -707 817 -1024
l71 -108 340 0 340 0 0 59 0 59 -80 12 c-99 15 -173 50 -268 125 -58 45 -129
127 -347 399 -150 188 -344 424 -430 525 l-157 182 149 152 c81 84 255 272
386 419 150 169 253 277 280 292 59 34 148 62 245 77 l82 12 0 59 0 58 -455 0
-455 0 0 -58 0 -58 80 -12 c44 -6 101 -20 125 -31 42 -19 45 -22 45 -59 0 -81
-106 -236 -331 -482 -158 -172 -483 -470 -513 -470 -15 0 -16 36 -14 458 3
382 5 462 18 487 21 42 84 71 201 91 l99 17 0 59 0 58 -505 0 -505 0 0 -58z"/>
</g>
</svg>
